<?xml version="1.0" standalone="no"?>
<!DOCTYPE svg PUBLIC "-//W3C//DTD SVG 20010904//EN"
 "http://www.w3.org/TR/2001/REC-SVG-20010904/DTD/svg10.dtd">
<svg version="1.0" xmlns="http://www.w3.org/2000/svg"
 width="340.000000pt" height="122.000000pt" viewBox="0 0 340.000000 122.000000"
 preserveAspectRatio="xMidYMid meet">

<g transform="translate(0.000000,122.000000) scale(0.100000,-0.100000)"
fill="#000000" stroke="none">
<path d="M310 1030 c-124 -72 -231 -138 -237 -147 -10 -12 -13 -86 -13 -284 0
-240 2 -269 17 -287 28 -31 455 -274 483 -274 14 0 108 48 210 107 102 59 204
118 228 132 24 13 47 36 53 49 11 31 12 231 1 238 -5 3 -27 -6 -50 -20 l-42
-25 0 -73 c0 -57 -4 -76 -17 -88 -26 -22 -370 -218 -383 -218 -13 0 -357 196
-382 218 -16 14 -18 38 -18 243 l0 229 38 23 c121 77 343 197 362 197 20 0
299 -152 373 -202 27 -19 27 -21 27 -124 0 -64 4 -104 10 -104 6 0 28 11 50
25 l40 25 0 89 c0 50 -4 100 -9 113 -11 29 -455 288 -492 288 -13 0 -125 -59
-249 -130z"/>
<path d="M406 886 c-149 -86 -154 -90 -137 -110 15 -18 274 -166 291 -166 7 0
60 27 117 60 58 33 107 60 109 60 2 0 4 -60 4 -132 l0 -133 -109 -62 c-60 -35
-115 -63 -122 -63 -8 0 -61 28 -119 63 l-105 62 -3 88 -3 87 -39 25 c-22 14
-42 25 -45 25 -3 0 -4 -64 -3 -142 l3 -142 150 -88 c83 -48 157 -87 165 -87 8
0 83 39 165 88 l150 87 0 193 0 192 -45 26 -45 25 -105 -61 c-58 -34 -112 -61
-120 -61 -8 0 -39 14 -68 31 -62 35 -60 45 19 84 39 20 51 22 76 13 24 -9 36
-7 71 11 24 12 40 26 37 31 -11 18 -113 70 -136 70 -13 0 -82 -34 -153 -74z"/>
<path d="M1120 653 l0 -76 42 -36 c71 -62 74 -61 149 6 39 35 39 36 39 109 0
67 -2 74 -20 74 -18 0 -20 -7 -20 -64 0 -61 -2 -66 -35 -95 -20 -17 -39 -31
-43 -31 -4 0 -22 14 -39 30 -31 28 -33 34 -33 95 0 58 -2 65 -20 65 -18 0 -20
-7 -20 -77z"/>
<path d="M1410 710 c0 -17 7 -20 45 -20 l45 0 0 -75 0 -75 -45 0 c-41 0 -45
-2 -45 -25 l0 -25 115 0 115 0 0 25 c0 23 -3 25 -50 25 l-51 0 3 73 3 72 48 3
c39 3 47 6 47 23 0 18 -8 19 -115 19 -108 0 -115 -1 -115 -20z"/>
<path d="M1712 718 c-7 -7 -12 -33 -12 -58 0 -25 5 -51 12 -58 7 -7 44 -12 95
-12 82 0 83 0 83 -25 0 -25 0 -25 -95 -25 l-95 0 0 -26 0 -26 105 4 c80 2 108
7 115 18 14 21 12 94 -2 108 -7 7 -44 12 -95 12 l-83 0 0 30 0 30 95 0 c88 0
95 1 95 20 0 19 -7 20 -103 20 -67 0 -107 -4 -115 -12z"/>
<path d="M1990 710 c0 -17 7 -20 45 -20 l45 0 0 -100 c0 -93 1 -100 20 -100
18 0 20 8 22 98 l3 97 48 3 c39 3 47 6 47 23 0 18 -8 19 -115 19 -108 0 -115
-1 -115 -20z"/>
<path d="M2292 718 c-8 -8 -12 -49 -12 -120 0 -101 1 -108 20 -108 17 0 20 7
20 50 l0 50 75 0 75 0 0 -50 c0 -43 3 -50 20 -50 19 0 20 7 20 108 0 71 -4
112 -12 120 -8 8 -46 12 -103 12 -57 0 -95 -4 -103 -12z m178 -58 l0 -30 -75
0 -75 0 0 30 0 30 75 0 75 0 0 -30z"/>
<path d="M2582 718 c-8 -8 -12 -47 -12 -110 0 -118 0 -118 134 -118 96 0 96 0
96 25 0 25 0 25 -95 25 l-95 0 0 75 0 75 95 0 c88 0 95 1 95 20 0 19 -7 20
-103 20 -67 0 -107 -4 -115 -12z"/>
<path d="M2860 610 c0 -113 1 -120 20 -120 17 0 20 7 20 50 0 41 3 50 18 50
10 0 40 -22 67 -50 36 -36 57 -50 77 -50 23 0 28 4 28 25 0 19 -5 25 -23 25
-13 0 -38 16 -60 38 l-37 38 38 37 c21 20 48 37 60 37 15 0 22 6 22 20 0 16
-7 20 -33 20 -26 0 -43 -10 -82 -50 -27 -27 -55 -50 -62 -50 -9 0 -13 16 -13
50 0 43 -3 50 -20 50 -19 0 -20 -7 -20 -120z"/>
<path d="M3156 708 c-9 -12 -16 -34 -16 -48 0 -14 7 -36 16 -48 14 -20 24 -22
100 -22 83 0 84 0 84 -25 l0 -25 -100 0 -100 0 0 -25 c0 -25 0 -25 98 -25 121
0 142 11 142 74 0 23 -5 47 -12 54 -7 7 -44 12 -95 12 l-83 0 0 30 0 30 95 0
c88 0 95 1 95 20 0 19 -7 20 -104 20 -97 0 -106 -2 -120 -22z"/>
</g>
</svg>
