<?xml version="1.0" encoding="utf-8"?>
<svg viewBox="0 0 320 121.0969939028045" preserveAspectRatio="xMidYMid meet" class="css-g5ufxp" id="badbaahh"><defs id="SvgjsDefs1001"><linearGradient id="SvgjsLinearGradient1011"><stop id="SvgjsStop1012" stop-color="#945f50" offset="0"></stop><stop id="SvgjsStop1013" stop-color="#fcc5b3" offset="0.5"></stop><stop id="SvgjsStop1014" stop-color="#945f50" offset="1"></stop></linearGradient><linearGradient id="SvgjsLinearGradient1015"><stop id="SvgjsStop1016" stop-color="#945f50" offset="0"></stop><stop id="SvgjsStop1017" stop-color="#fcc5b3" offset="0.5"></stop><stop id="SvgjsStop1018" stop-color="#945f50" offset="1"></stop></linearGradient></defs><g id="SvgjsG1007" featurekey="symbolFeature-0" transform="matrix(1.4283674881625048,0,0,1.4283674881625048,-21.425512322437573,-10.869876775624295)" fill="#111"><title xmlns="http://www.w3.org/2000/svg">Bigdark_v2</title><path xmlns="http://www.w3.org/2000/svg" d="M50,71.66c14,0,26.39-2.28,35-6V84.64h0c-0.26,4.28-15.82,7.75-35,7.75s-34.64-3.45-35-7.72a0,0,0,0,0,0,0v-19C23.61,69.39,36,71.66,50,71.66Zm0-48.31c19.33,0,35-3.53,35-7.88S69.33,7.61,50,7.61s-35,3.53-35,7.87S30.67,23.36,50,23.36ZM15,43.42v19c0.61,0.28,1.24.57,1.91,0.83S18.29,63.78,19,64c8,2.9,19,4.72,31,4.72S73,66.95,81,64c0.71-.26,1.43-0.52,2.09-0.81s1.31-.55,1.92-0.84v-19c-8.61,3.69-21,6-35,6S23.61,47.12,15,43.42Zm0-22.25v19q0.89,0.41,1.89.83c0.66,0.28,1.36.55,2.09,0.81,8,2.89,19.05,4.7,31,4.7s23-1.81,31-4.7c0.73-.26,1.43-0.54,2.09-0.81s1.29-.55,1.91-0.84v-19c-8.61,3.69-21,6-35,6S23.61,24.87,15,21.17Z"></path></g><g id="SvgjsG1008" featurekey="nameFeature-0" transform="matrix(1.7397354585912246,0,0,1.7397354585912246,117.91231778151874,18.778011510191305)" fill="#111"><path d="M1.2 30.240000000000002 l4.04 0 c0.08 5.16 0.48 6.16 1.92 6.16 c1.96 0 1.96 -1.64 1.96 -6 c0 -6.4 -7.92 -4.68 -7.92 -13.2 c0 -5 0 -9.6 6 -9.6 c4.44 0 5.64 2.52 5.92 8.56 l-4 0 c-0.16 -4.36 -0.64 -5.36 -1.92 -5.36 c-1.96 0 -1.96 2.16 -1.96 6.4 c0 6.2 7.96 4 7.96 13.2 c0 5.6 0 10 -6.04 10 c-4.64 0 -5.72 -2.76 -5.96 -10.16 z M16.4 40 l0 -32 l4 0 l0 12.68 l4 -12.68 l4 0 l-4.8 15.2 l4.8 16.8 l-4 0 l-4 -14 l0 14 l-4 0 z M30.400000000000002 23.16 c0 -11.16 0.24 -15.56 6.24 -15.56 s6.24 4.4 6.24 15.56 c0 12.8 -0.24 17.24 -6.24 17.24 s-6.24 -4.44 -6.24 -17.24 z M34.4 23.16 c0 11.56 0 13.24 2.24 13.24 s2.24 -1.68 2.24 -13.24 c0 -10.4 0 -12.36 -2.24 -12.36 s-2.24 1.96 -2.24 12.36 z M46.480000000000004 40 l0 -32 l6.48 0 c4.12 0 5.52 2.52 5.52 7.36 c0 4.36 -0.52 6.84 -1.76 8.04 l0 0.24 c1.04 0.36 1.36 2.24 1.76 6.92 l0.8 9.44 l-4 0 l-0.52 -9.44 c-0.28 -4.76 -1 -5.76 -2.2 -5.76 l-2.08 0 l0 15.2 l-4 0 z M50.480000000000004 21.6 l2.48 0 c1.4 0 1.8 -1.4 1.8 -6.24 c0 -3.16 -0.6 -4.16 -1.8 -4.16 l-2.48 0 l0 10.4 z M62.480000000000004 40 l0 -32 l9.2 0 l0 3.2 l-5.2 0 l0 10.4 l4.4 0 l0 3.2 l-4.4 0 l0 11.2 l5.2 0 l0 4 l-9.2 0 z M74.48 40 l0 -32 l6.08 0 c4.12 0 5.48 2.56 5.48 7.16 l0 0.84 c0 2.76 -0.64 4.92 -1.36 6.48 l0 0.16 c1.48 1.24 2.4 3.68 2.6 7.92 l0 1.28 c-0.32 5.64 -1.8 8.16 -5.92 8.16 l-6.88 0 z M78.48 21.6 l2.08 0 c1.12 0 1.92 -1.32 1.92 -5.6 l0 -0.84 c0 -3.08 -0.72 -3.96 -1.92 -3.96 l-2.08 0 l0 10.4 z M78.48 36 l2.88 0 c1.2 0 2.04 -1 2.2 -4.16 l0 -1.28 c-0.16 -4.76 -1 -5.76 -2.2 -5.76 l-2.88 0 l0 11.2 z M89.67999999999999 23.16 c0 -11.16 0.24 -15.56 6.24 -15.56 s6.24 4.4 6.24 15.56 c0 12.8 -0.24 17.24 -6.24 17.24 s-6.24 -4.44 -6.24 -17.24 z M93.67999999999999 23.16 c0 11.56 0 13.24 2.24 13.24 s2.24 -1.68 2.24 -13.24 c0 -10.4 0 -12.36 -2.24 -12.36 s-2.24 1.96 -2.24 12.36 z M104.16 11.600000000000001 l0 -3.6 l12 0 l0 3.6 l-4 0 l0 28.4 l-4 0 l0 -28.4 l-4 0 z"></path></g></svg>